PathFileType	4	(X/Y/Z)	RBDS001\RBDS001runT35.trc
DataRate	CameraRate	NumFrames	NumMarkers	Units	OrigDataRate	OrigDataStartFrame	OrigNumFrames
150.000000	150.000000	5	32	mm	150.000000	2812	4500
Frame#	Time	L.ASIS			L.Heel.Bottom			L.Heel.Lateral			L.Heel.Top			L.Iliac.Crest			L.MT1			L.MT5			L.PSIS			L.Shank.Bottom.Lateral			L.Shank.Bottom.Medial			L.Shank.Top.Lateral			L.Shank.Top.Medial			L.Thigh.Bottom.Lateral			L.Thigh.Bottom.Medial			L.Thigh.Top.Lateral			L.Thigh.Top.Medial			R.ASIS			R.Heel.Bottom			R.Heel.Lateral			R.Heel.Top			R.Iliac.Crest			R.MT1			R.MT5			R.PSIS			R.Shank.Bottom.Lateral			R.Shank.Bottom.Medial			R.Shank.Top.Lateral			R.Shank.Top.Medial			R.Thigh.Bottom.Lateral			R.Thigh.Bottom.Medial			R.Thigh.Top.Lateral			R.Thigh.Top.Medial			
		X1	Y1	Z1	X2	Y2	Z2	X3	Y3	Z3	X4	Y4	Z4	X5	Y5	Z5	X6	Y6	Z6	X7	Y7	Z7	X8	Y8	Z8	X9	Y9	Z9	X10	Y10	Z10	X11	Y11	Z11	X12	Y12	Z12	X13	Y13	Z13	X14	Y14	Z14	X15	Y15	Z15	X16	Y16	Z16	X17	Y17	Z17	X18	Y18	Z18	X19	Y19	Z19	X20	Y20	Z20	X21	Y21	Z21	X22	Y22	Z22	X23	Y23	Z23	X24	Y24	Z24	X25	Y25	Z25	X26	Y26	Z26	X27	Y27	Z27	X28	Y28	Z28	X29	Y29	Z29	X30	Y30	Z30	X31	Y31	Z31	X32	Y32	Z32	

2813	18.74666666666667	2416.678541930441	1063.053403605827	923.4415847927838	2325.226173529021	177.2937208093394	994.2656355174078	2351.246915884456	179.9454784176434	949.500306813229	2348.477024597176	218.9084369500777	990.1330667927314	2362.016229185199	1133.246826388251	883.7921750468707	2544.963633283659	123.8818248951464	1002.410379339916	2495.615574078375	120.0515134644784	904.8761312306717	2252.720973393503	1107.282257680984	982.6172172931193	2441.496338604066	295.8628760134703	921.3383038973587	2404.95265932705	309.7845591727126	955.0454309534335	2460.190405684484	373.0305923070759	904.9593915047503	2424.960364513445	390.869576278916	941.2685213797232	2508.266300359294	709.564663021996	870.9607280000698	2464.200985178337	676.8175566133785	919.4623482959036	2430.436438443076	787.0168812103635	857.9697436440628	2390.080180834289	758.4592794634732	906.1591649097065	2411.488534085045	1036.93197832638	1129.018132776555	1792.660378799065	237.1724579633461	1040.462365149617	1818.813511724649	213.3506157600902	1082.671197306247	1837.815336191413	254.1477116798972	1047.890921468815	2370.371960762538	1118.144566183479	1152.829875948356	1906.507822113387	72.99750010878336	1086.279125743969	1935.008794591955	75.50049969780169	980.418661338944	2256.966677627054	1107.245083369878	1058.973783580561	1935.502145172404	278.9545348080334	1102.069009473493	1905.228812502393	306.8759101061909	1065.712083128775	1976.294196283125	347.5110871694949	1119.392828960384	1945.945609035372	374.2582871711041	1082.982608735698	2194.001186694814	653.5451064964121	1148.392586894379	2140.309109643633	672.5058687143996	1100.637891159446	2212.75767297427	761.3922117416752	1165.431202582499	2163.002604742115	778.6830604228988	1118.542530601551	
2814	18.75333333333333	2417.619445075097	1065.432018598035	923.4543466653065	2351.946331678795	159.8883415361218	997.8931519246594	2377.200343140759	163.6489903504741	952.7911358854208	2372.393021806524	202.8472131886274	993.0053075029284	2362.728499898606	1135.500764222169	883.9592099753007	2574.629405955012	120.6636337902526	1004.301523141692	2524.665052710149	112.7649529598388	907.2519549327542	2254.335301096618	1109.720468363153	983.60500103172	2459.382988297559	285.6668916348798	923.3822381594607	2422.530799651173	297.2279660073597	957.5252003113384	2472.849528604418	363.7425611766325	906.6691483656118	2437.067003899668	379.3447662119674	943.4608859283705	2505.310927553091	708.5196092081896	872.2382133731264	2460.409475652365	675.9643162643089	920.106750351729	2428.921184946271	787.3493932624901	859.2975048396461	2387.779089943061	759.0624459200681	906.9025520795794	2413.723251147136	1039.437707343047	1128.88477750836	1785.735752281814	251.4109430854594	1043.057286795897	1810.603174908593	225.8849635865375	1085.150013548086	1831.789939948847	265.9684125953502	1050.703647470937	2373.08206806835	1121.194047124953	1152.917925297101	1891.431193272322	79.42326196551156	1087.95719250528	1920.385478560759	82.38354086334712	982.4976029954756	2259.115734035736	1110.133956897763	1059.9688839024	1927.723436662825	286.7135778146268	1104.082156436412	1897.506044420612	314.7597861791114	1067.80515417381	1969.221010807998	355.0087484849363	1120.859717058334	1938.878305737067	381.8671414376538	1084.617916099237	2191.279890367096	658.8447974858233	1147.899916953978	2137.472836368321	679.0680164004107	1100.810496945185	2212.173617783584	766.1800831713978	1165.578180225389	2162.39942903366	784.6614328264573	1119.193310691634	
2815	18.76	2418.545287177431	1067.226467350478	923.6250901128935	2378.637835589099	143.8604663242558	1001.619223912037	2403.009339909803	148.6486894220754	956.1424825699435	2396.283378286541	187.9348417091059	995.9820750804544	2363.461829690732	1137.109848247316	884.1131981760532	2603.257269591489	118.4176930512712	1005.877729796213	2552.855954002177	106.5234219733312	909.4343298630147	2255.819578691468	1111.689932723484	984.4167833823375	2476.878208806152	275.9786276722573	925.4022073405952	2439.904310021706	285.1823523154213	960.0155003313118	2485.097713705793	354.5914069902557	908.3733743295071	2448.93527627564	367.9480560327193	945.6610166344357	2501.622791997963	706.4583150864768	873.4714632357202	2455.93786248113	674.3859171740102	920.9032687754056	2426.893434264546	786.8211277748552	860.5214416522748	2385.004394547178	759.0240437410248	907.6708359986422	2415.695143726957	1041.704865960075	1128.88030219517	1778.852106366225	265.1058716851564	1045.810950280577	1802.680086252824	238.1647727503147	1087.711625281159	1825.613076146334	277.524967482772	1053.459060261806	2375.348353839863	1123.954191908913	1153.062225921542	1877.315197495016	86.63917463538471	1089.591420837161	1906.381362079819	90.01898367831825	984.4787306495466	2261.016006523348	1112.599285493444	1060.808794671752	1920.391276262751	294.5243729138622	1105.916158574996	1890.251130067705	322.9025666497211	1069.91374553264	1962.867324803793	362.3336640457327	1122.210906736775	1932.563422214388	389.5184703558898	1086.297071215051	2189.657546594094	663.2689632318444	1147.377872822921	2135.635307285399	684.6261494649832	1101.035089027274	2212.377293632584	770.1011701180639	1165.772765242267	2162.413538480905	789.6647936892033	1120.051376452128	
2816	18.76666666666667	2419.457112047411	1068.45601997834	923.977104399416	2404.921945806226	129.3832736439077	1005.455230437235	2428.321577592054	135.077452362733	959.5721884171611	2419.809984746688	174.34355995689	999.0660607761155	2364.278890944617	1138.125698684168	884.2634564217628	2630.559207751366	117.1497893402864	1007.140362682848	2579.866853905452	101.3016821438994	911.4463493205659	2257.178061634909	1113.229271402798	985.035955152015	2493.764222790206	266.93024502824	927.4000273272881	2456.835321868551	273.807115121043	962.5052861346944	2496.778996914366	345.7280307883977	910.0812449391841	2460.388946893098	356.8546095914979	947.862030243537	2497.258789933639	703.5103982897625	874.6665193159315	2450.882540896345	672.2276144556143	921.9002034460478	2424.373447538115	785.5134461350258	861.6381342550558	2381.818289240686	758.4398053737102	908.5073076664395	2417.404434341988	1043.704930872483	1129.004524281973	1771.86397857478	278.2067605361128	1048.737028226618	1794.960230716686	250.1215075921046	1090.354071517152	1819.167103826896	288.7994992144275	1056.147949354654	2377.169402918125	1126.402713193167	1153.25096869573	1864.200136294114	94.58792997374758	1091.13705206041	1892.956368427059	98.34028863959549	986.2649436571797	2262.658548548621	1114.639680788373	1061.484018083713	1913.443063511037	302.3947674641875	1107.551426830087	1883.427590523502	331.3164359040329	1071.990196023618	1957.176836347183	369.4747590096727	1123.426877458962	1926.970112418981	397.2044124075929	1087.974388319267	2189.112991033054	666.7143922534467	1146.874727241416	2134.795538411002	689.0539632998394	1101.313910315706	2213.311738013363	773.0795712667502	1166.04034976788	2163.000031755399	793.5936082586803	1121.106232869688	
2817	18.77333333333333	2420.345560320119	1069.155807244276	924.5163307425174	2430.36359977093	116.5737495833786	1009.402840969946	2452.736662338416	123.0066703036203	963.091467426113	2442.58036511514	162.1948972330729	1002.24312406377	2365.2163594176	1138.621257906218	884.4208785151504	2656.221408038327	116.8160687328604	1008.116299988478	2605.353624908283	97.01670242166915	913.3295026425386	2258.410960464395	1114.375002832884	985.4681568988058	2509.792254768925	258.6278054781857	929.3724472743606	2473.049927194995	263.2406564423986	964.9772826220311	2507.718121926358	337.2923323678244	911.7971850549552	2471.229136704607	346.2337731194246	950.0537513599228	2492.313551090181	699.8420200958315	875.8315654468637	2445.365005079824	669.6428512796761	923.1216384488878	2421.40936476509	783.5393007956549	862.651441204156	2378.299955958595	757.4166451972802	909.4434665827664	2418.864449337306	1045.406095119253	1129.249304456512	1764.722491564052	290.7234336955234	1051.836999870217	1787.418390995792	261.7275330614603	1093.071320668508	1812.435083171299	299.8040614352633	1058.772490912741	2378.564904033615	1128.511582221181	1153.472691386348	1852.099161300838	103.1836178859444	1092.555885895297	1880.088555933485	107.2697701623509	987.7788637370195	2264.042041726007	1116.251903464391	1062.004268823566	1906.856729955953	310.3188606129201	1108.986173546383	1877.040826768733	339.9851297801375	1073.993086705218	1952.118410332807	376.4176337009645	1124.5018495776	1922.090911822446	404.8992870074263	1089.610512242087	2189.598834081761	669.110039921811	1146.439140524192	2134.934345679332	692.2565515711739	1101.640685732581	2214.899474097276	775.0704724340584	1166.399605682733	2164.109389566827	796.3772966510827	1122.323236959302	
